<mxfile host="app.diagrams.net" agent="Mozilla/5.0 (Windows NT 10.0; Win64; x64) AppleWebKit/537.36 (KHTML, like Gecko) Chrome/132.0.0.0 Safari/537.36" version="26.0.11">
  <diagram name="第 1 页" id="sxD4nlqV_mKAmoMYz5X_">
    <mxGraphModel dx="2074" dy="1144" grid="1" gridSize="10" guides="1" tooltips="1" connect="1" arrows="1" fold="1" page="1" pageScale="1" pageWidth="1200" pageHeight="1920" math="0" shadow="0">
      <root>
        <mxCell id="0" />
        <mxCell id="1" parent="0" />
        <mxCell id="M1oXnh_6FqIk_pS5uYmb-6" value="" style="verticalLabelPosition=bottom;html=1;verticalAlign=top;align=center;shape=mxgraph.floorplan.bed_double;direction=south;" vertex="1" parent="1">
          <mxGeometry x="900" y="630" width="250" height="150" as="geometry" />
        </mxCell>
        <mxCell id="bj25d894FFZXHpdckU7G-4" value="" style="verticalLabelPosition=bottom;html=1;verticalAlign=top;align=center;shape=mxgraph.floorplan.wallCorner;fillColor=strokeColor;" parent="1" vertex="1">
          <mxGeometry x="240" y="290" width="260" height="520" as="geometry" />
        </mxCell>
        <mxCell id="bj25d894FFZXHpdckU7G-5" value="" style="verticalLabelPosition=bottom;html=1;verticalAlign=top;align=center;shape=mxgraph.floorplan.wallCorner;fillColor=strokeColor;direction=north" parent="1" vertex="1">
          <mxGeometry x="560" y="300" width="270" height="280" as="geometry" />
        </mxCell>
        <mxCell id="bj25d894FFZXHpdckU7G-8" value="" style="verticalLabelPosition=bottom;html=1;verticalAlign=top;align=center;shape=mxgraph.floorplan.wallCorner;fillColor=strokeColor;direction=south;" parent="1" vertex="1">
          <mxGeometry x="490" y="290" width="670" height="100" as="geometry" />
        </mxCell>
        <mxCell id="bj25d894FFZXHpdckU7G-9" value="" style="verticalLabelPosition=bottom;html=1;verticalAlign=top;align=center;shape=mxgraph.floorplan.wallCorner;fillColor=strokeColor;direction=west" parent="1" vertex="1">
          <mxGeometry x="830" y="375" width="330" height="425" as="geometry" />
        </mxCell>
        <mxCell id="bj25d894FFZXHpdckU7G-10" value="" style="verticalLabelPosition=bottom;html=1;verticalAlign=top;align=center;shape=mxgraph.floorplan.wall;fillColor=strokeColor;direction=south;" parent="1" vertex="1">
          <mxGeometry x="790" y="570" width="80" height="230" as="geometry" />
        </mxCell>
        <mxCell id="bj25d894FFZXHpdckU7G-11" value="" style="verticalLabelPosition=bottom;html=1;verticalAlign=top;align=center;shape=mxgraph.floorplan.wallCorner;fillColor=strokeColor;direction=south;" parent="1" vertex="1">
          <mxGeometry x="252.5" y="788" width="317.5" height="100" as="geometry" />
        </mxCell>
        <mxCell id="bj25d894FFZXHpdckU7G-14" value="" style="verticalLabelPosition=bottom;html=1;verticalAlign=top;align=center;shape=mxgraph.floorplan.doorDouble;aspect=fixed;" parent="1" vertex="1">
          <mxGeometry x="300" y="290" width="160" height="85" as="geometry" />
        </mxCell>
        <mxCell id="bj25d894FFZXHpdckU7G-15" value="" style="verticalLabelPosition=bottom;html=1;verticalAlign=top;align=center;shape=mxgraph.floorplan.doorDouble;aspect=fixed;direction=west;" parent="1" vertex="1">
          <mxGeometry x="628.83" y="510" width="131.76" height="70" as="geometry" />
        </mxCell>
        <mxCell id="bj25d894FFZXHpdckU7G-19" value="" style="verticalLabelPosition=bottom;html=1;verticalAlign=top;align=center;shape=mxgraph.floorplan.windowGlider;dx=0.25;direction=south;" parent="1" vertex="1">
          <mxGeometry x="825" y="630" width="10" height="100" as="geometry" />
        </mxCell>
        <mxCell id="bj25d894FFZXHpdckU7G-20" value="" style="verticalLabelPosition=bottom;html=1;verticalAlign=top;align=center;shape=mxgraph.floorplan.windowGlider;dx=0.25;direction=west;" parent="1" vertex="1">
          <mxGeometry x="930" y="290" width="150" height="10" as="geometry" />
        </mxCell>
        <mxCell id="bj25d894FFZXHpdckU7G-21" value="" style="verticalLabelPosition=bottom;html=1;verticalAlign=top;align=center;shape=mxgraph.floorplan.wallCorner;fillColor=strokeColor;direction=north" parent="1" vertex="1">
          <mxGeometry x="240" y="810" width="290" height="430" as="geometry" />
        </mxCell>
        <mxCell id="bj25d894FFZXHpdckU7G-22" value="" style="verticalLabelPosition=bottom;html=1;verticalAlign=top;align=center;shape=mxgraph.floorplan.wall;fillColor=strokeColor;direction=south;" parent="1" vertex="1">
          <mxGeometry x="560" y="900" width="10" height="270" as="geometry" />
        </mxCell>
        <mxCell id="bj25d894FFZXHpdckU7G-24" value="" style="verticalLabelPosition=bottom;html=1;verticalAlign=top;align=center;shape=mxgraph.floorplan.doorRight;aspect=fixed;direction=south;" parent="1" vertex="1">
          <mxGeometry x="506.25" y="840" width="63.75" height="60" as="geometry" />
        </mxCell>
        <mxCell id="bj25d894FFZXHpdckU7G-25" value="" style="verticalLabelPosition=bottom;html=1;verticalAlign=top;align=center;shape=mxgraph.floorplan.wall;fillColor=strokeColor;direction=west;" parent="1" vertex="1">
          <mxGeometry x="240" y="900" width="330" height="10" as="geometry" />
        </mxCell>
        <mxCell id="bj25d894FFZXHpdckU7G-26" value="" style="verticalLabelPosition=bottom;html=1;verticalAlign=top;align=center;shape=mxgraph.floorplan.windowGlider;dx=0.25;direction=south;" parent="1" vertex="1">
          <mxGeometry x="560" y="940" width="10" height="100" as="geometry" />
        </mxCell>
        <mxCell id="bj25d894FFZXHpdckU7G-28" value="" style="verticalLabelPosition=bottom;html=1;verticalAlign=top;align=center;shape=mxgraph.floorplan.doorRight;aspect=fixed;direction=south;" parent="1" vertex="1">
          <mxGeometry x="500" y="1167.88" width="66" height="62.12" as="geometry" />
        </mxCell>
        <mxCell id="bj25d894FFZXHpdckU7G-30" value="" style="verticalLabelPosition=bottom;html=1;verticalAlign=top;align=center;shape=mxgraph.floorplan.wallU;fillColor=strokeColor;direction=west;" parent="1" vertex="1">
          <mxGeometry x="240" y="1230" width="930" height="680" as="geometry" />
        </mxCell>
        <mxCell id="bj25d894FFZXHpdckU7G-32" value="" style="verticalLabelPosition=bottom;html=1;verticalAlign=top;align=center;shape=mxgraph.floorplan.window;" parent="1" vertex="1">
          <mxGeometry x="560" y="1160" width="250" height="10" as="geometry" />
        </mxCell>
        <mxCell id="bj25d894FFZXHpdckU7G-35" value="" style="verticalLabelPosition=bottom;html=1;verticalAlign=top;align=center;shape=mxgraph.floorplan.window;" parent="1" vertex="1">
          <mxGeometry x="270" y="1230" width="240" height="10" as="geometry" />
        </mxCell>
        <mxCell id="bj25d894FFZXHpdckU7G-36" value="" style="verticalLabelPosition=bottom;html=1;verticalAlign=top;align=center;shape=mxgraph.floorplan.wallCorner;fillColor=strokeColor;direction=south;" parent="1" vertex="1">
          <mxGeometry x="820" y="1160" width="350" height="100" as="geometry" />
        </mxCell>
        <mxCell id="bj25d894FFZXHpdckU7G-37" value="" style="verticalLabelPosition=bottom;html=1;verticalAlign=top;align=center;shape=mxgraph.floorplan.windowGlider;dx=0.25;direction=west;" parent="1" vertex="1">
          <mxGeometry x="890" y="1160" width="200" height="10" as="geometry" />
        </mxCell>
        <mxCell id="bj25d894FFZXHpdckU7G-38" value="" style="verticalLabelPosition=bottom;html=1;verticalAlign=top;align=center;shape=mxgraph.floorplan.wallCorner;fillColor=strokeColor;" parent="1" vertex="1">
          <mxGeometry x="810" y="1160" width="70" height="740" as="geometry" />
        </mxCell>
        <mxCell id="bj25d894FFZXHpdckU7G-40" value="" style="verticalLabelPosition=bottom;html=1;verticalAlign=top;align=center;shape=mxgraph.floorplan.doorRight;aspect=fixed;direction=north;" parent="1" vertex="1">
          <mxGeometry x="810" y="1530" width="85" height="80" as="geometry" />
        </mxCell>
        <mxCell id="bj25d894FFZXHpdckU7G-42" value="" style="verticalLabelPosition=bottom;html=1;verticalAlign=top;align=center;shape=mxgraph.floorplan.doorLeft;aspect=fixed;direction=north;" parent="1" vertex="1">
          <mxGeometry x="810" y="1380" width="85" height="80" as="geometry" />
        </mxCell>
        <mxCell id="bj25d894FFZXHpdckU7G-43" value="" style="verticalLabelPosition=bottom;html=1;verticalAlign=top;align=center;shape=mxgraph.floorplan.wall;fillColor=strokeColor;direction=west;" parent="1" vertex="1">
          <mxGeometry x="820" y="1500" width="350" height="10" as="geometry" />
        </mxCell>
        <mxCell id="bj25d894FFZXHpdckU7G-44" value="" style="verticalLabelPosition=bottom;html=1;verticalAlign=top;align=center;shape=mxgraph.floorplan.wall;fillColor=strokeColor;direction=west;" parent="1" vertex="1">
          <mxGeometry x="420" y="1580" width="390" height="100" as="geometry" />
        </mxCell>
        <mxCell id="bj25d894FFZXHpdckU7G-45" value="" style="verticalLabelPosition=bottom;html=1;verticalAlign=top;align=center;shape=mxgraph.floorplan.wall;fillColor=strokeColor;direction=south;" parent="1" vertex="1">
          <mxGeometry x="411" y="1625" width="10" height="280" as="geometry" />
        </mxCell>
        <mxCell id="bj25d894FFZXHpdckU7G-46" value="" style="verticalLabelPosition=bottom;html=1;verticalAlign=top;align=center;shape=mxgraph.floorplan.wall;fillColor=strokeColor;" parent="1" vertex="1">
          <mxGeometry x="530" y="1230" width="280" height="10" as="geometry" />
        </mxCell>
        <mxCell id="bj25d894FFZXHpdckU7G-47" value="" style="verticalLabelPosition=bottom;html=1;verticalAlign=top;align=center;shape=mxgraph.floorplan.windowGlider;dx=0.25;" parent="1" vertex="1">
          <mxGeometry x="920" y="1900" width="150" height="10" as="geometry" />
        </mxCell>
        <mxCell id="bj25d894FFZXHpdckU7G-48" value="" style="verticalLabelPosition=bottom;html=1;verticalAlign=top;align=center;shape=mxgraph.floorplan.windowGlider;dx=0.25;" parent="1" vertex="1">
          <mxGeometry x="540" y="1890" width="150" height="20" as="geometry" />
        </mxCell>
        <mxCell id="bj25d894FFZXHpdckU7G-49" value="" style="verticalLabelPosition=bottom;html=1;verticalAlign=top;align=center;shape=mxgraph.floorplan.couch;direction=south;" parent="1" vertex="1">
          <mxGeometry x="440" y="1240" width="80" height="300" as="geometry" />
        </mxCell>
        <mxCell id="bj25d894FFZXHpdckU7G-50" value="" style="verticalLabelPosition=bottom;html=1;verticalAlign=top;align=center;shape=mxgraph.floorplan.doorSlidingGlass;dx=0;" parent="1" vertex="1">
          <mxGeometry x="250" y="1630" width="160" height="10" as="geometry" />
        </mxCell>
        <mxCell id="bj25d894FFZXHpdckU7G-51" value="" style="verticalLabelPosition=bottom;html=1;verticalAlign=top;align=center;shape=mxgraph.floorplan.doorSlidingGlass;dx=0;" parent="1" vertex="1">
          <mxGeometry x="610.59" y="1160" width="150" height="10" as="geometry" />
        </mxCell>
        <mxCell id="bj25d894FFZXHpdckU7G-52" value="" style="verticalLabelPosition=bottom;html=1;verticalAlign=top;align=center;shape=mxgraph.floorplan.doorDouble;aspect=fixed;" parent="1" vertex="1">
          <mxGeometry x="595" y="1234.37" width="180" height="95.63" as="geometry" />
        </mxCell>
        <mxCell id="bj25d894FFZXHpdckU7G-53" value="" style="verticalLabelPosition=bottom;html=1;verticalAlign=top;align=center;shape=mxgraph.floorplan.table;direction=south;" parent="1" vertex="1">
          <mxGeometry x="340" y="1330" width="70" height="110" as="geometry" />
        </mxCell>
        <mxCell id="bj25d894FFZXHpdckU7G-54" value="" style="verticalLabelPosition=bottom;html=1;verticalAlign=top;align=center;shape=mxgraph.floorplan.couch;direction=east;" parent="1" vertex="1">
          <mxGeometry x="265" y="1240" width="255" height="60" as="geometry" />
        </mxCell>
        <mxCell id="bj25d894FFZXHpdckU7G-56" value="" style="verticalLabelPosition=bottom;html=1;verticalAlign=top;align=center;shape=mxgraph.floorplan.flat_tv;direction=north;" parent="1" vertex="1">
          <mxGeometry x="580" y="375" width="10" height="110" as="geometry" />
        </mxCell>
        <mxCell id="bj25d894FFZXHpdckU7G-57" value="&lt;font color=&quot;#ff0c5d&quot;&gt;576cm&lt;/font&gt;" style="shape=dimension;whiteSpace=wrap;html=1;align=center;points=[];verticalAlign=bottom;spacingBottom=3;labelBackgroundColor=none;direction=west;strokeColor=#FF1CC2;" parent="1" vertex="1">
          <mxGeometry x="527.75" y="240" width="620" height="40" as="geometry" />
        </mxCell>
        <mxCell id="bj25d894FFZXHpdckU7G-59" value="260cm" style="shape=dimension;direction=south;whiteSpace=wrap;html=1;align=center;points=[];verticalAlign=top;labelBackgroundColor=none;horizontal=0;spacingTop=-15;fillColor=#f8cecc;strokeColor=#b85450;" parent="1" vertex="1">
          <mxGeometry x="1170" y="580" width="60" height="220" as="geometry" />
        </mxCell>
        <mxCell id="bj25d894FFZXHpdckU7G-60" value="280cm" style="shape=dimension;direction=west;whiteSpace=wrap;html=1;align=center;points=[];verticalAlign=top;spacingTop=-15;labelBackgroundColor=none;fillColor=#dae8fc;strokeColor=#6c8ebf;" parent="1" vertex="1">
          <mxGeometry x="835" y="810" width="310" height="40" as="geometry" />
        </mxCell>
        <mxCell id="bj25d894FFZXHpdckU7G-61" value="445cm" style="shape=dimension;direction=south;whiteSpace=wrap;html=1;align=center;points=[];verticalAlign=top;labelBackgroundColor=none;horizontal=0;spacingTop=-15;fillColor=#d5e8d4;strokeColor=#82b366;" parent="1" vertex="1">
          <mxGeometry x="515.88" y="302.5" width="14.12" height="270" as="geometry" />
        </mxCell>
        <mxCell id="bj25d894FFZXHpdckU7G-64" value="" style="verticalLabelPosition=bottom;html=1;verticalAlign=top;align=center;shape=mxgraph.floorplan.doorRight;aspect=fixed;direction=north;" parent="1" vertex="1">
          <mxGeometry x="411" y="1650" width="85" height="80" as="geometry" />
        </mxCell>
        <mxCell id="bj25d894FFZXHpdckU7G-65" value="家的大门" style="shape=dimension;whiteSpace=wrap;html=1;align=center;points=[];verticalAlign=bottom;spacingBottom=3;labelBackgroundColor=none;" parent="1" vertex="1">
          <mxGeometry x="250" y="230" width="260" height="40" as="geometry" />
        </mxCell>
        <mxCell id="M1oXnh_6FqIk_pS5uYmb-2" value="155cm" style="shape=dimension;direction=north;whiteSpace=wrap;html=1;align=center;points=[];verticalAlign=bottom;labelBackgroundColor=none;horizontal=0;spacingBottom=3;" vertex="1" parent="1">
          <mxGeometry x="780" y="630" width="40" height="100" as="geometry" />
        </mxCell>
        <mxCell id="M1oXnh_6FqIk_pS5uYmb-4" value="267cm" style="shape=dimension;whiteSpace=wrap;html=1;align=center;points=[];verticalAlign=bottom;spacingBottom=3;labelBackgroundColor=none;" vertex="1" parent="1">
          <mxGeometry x="890" y="240" width="270" height="40" as="geometry" />
        </mxCell>
        <mxCell id="M1oXnh_6FqIk_pS5uYmb-5" value="186cm" style="shape=dimension;direction=west;whiteSpace=wrap;html=1;align=center;points=[];verticalAlign=top;spacingTop=-15;labelBackgroundColor=none;" vertex="1" parent="1">
          <mxGeometry x="520" y="600" width="300" height="40" as="geometry" />
        </mxCell>
        <mxCell id="M1oXnh_6FqIk_pS5uYmb-13" value="" style="verticalLabelPosition=bottom;html=1;verticalAlign=top;align=center;shape=mxgraph.floorplan.elevator;" vertex="1" parent="1">
          <mxGeometry x="1080" y="312.5" width="70" height="257.5" as="geometry" />
        </mxCell>
        <mxCell id="M1oXnh_6FqIk_pS5uYmb-14" value="" style="verticalLabelPosition=bottom;html=1;verticalAlign=top;align=center;shape=mxgraph.floorplan.window;" vertex="1" parent="1">
          <mxGeometry x="835" y="570" width="315" height="10" as="geometry" />
        </mxCell>
        <mxCell id="M1oXnh_6FqIk_pS5uYmb-15" value="" style="verticalLabelPosition=bottom;html=1;verticalAlign=top;align=center;shape=mxgraph.floorplan.doorSlidingGlass;dx=0;" vertex="1" parent="1">
          <mxGeometry x="860" y="570" width="70" height="10" as="geometry" />
        </mxCell>
        <mxCell id="M1oXnh_6FqIk_pS5uYmb-16" value="" style="verticalLabelPosition=bottom;html=1;verticalAlign=top;align=center;shape=mxgraph.floorplan.elevator;" vertex="1" parent="1">
          <mxGeometry x="940" y="312.5" width="140" height="59.37" as="geometry" />
        </mxCell>
        <mxCell id="M1oXnh_6FqIk_pS5uYmb-17" value="" style="verticalLabelPosition=bottom;html=1;verticalAlign=top;align=center;shape=mxgraph.floorplan.elevator;" vertex="1" parent="1">
          <mxGeometry x="900" y="780" width="87.5" height="8.75" as="geometry" />
        </mxCell>
        <mxCell id="M1oXnh_6FqIk_pS5uYmb-18" value="" style="verticalLabelPosition=bottom;html=1;verticalAlign=top;align=center;shape=mxgraph.floorplan.elevator;" vertex="1" parent="1">
          <mxGeometry x="890" y="302.5" width="270" height="10" as="geometry" />
        </mxCell>
        <mxCell id="M1oXnh_6FqIk_pS5uYmb-20" value="" style="verticalLabelPosition=bottom;html=1;verticalAlign=top;align=center;shape=mxgraph.floorplan.couch;direction=south;" vertex="1" parent="1">
          <mxGeometry x="740" y="305" width="80" height="170" as="geometry" />
        </mxCell>
        <mxCell id="M1oXnh_6FqIk_pS5uYmb-21" value="180cm" style="shape=dimension;whiteSpace=wrap;html=1;align=center;points=[];verticalAlign=bottom;spacingBottom=3;labelBackgroundColor=none;" vertex="1" parent="1">
          <mxGeometry x="930" y="560" width="220" height="40" as="geometry" />
        </mxCell>
        <mxCell id="M1oXnh_6FqIk_pS5uYmb-22" value="" style="verticalLabelPosition=bottom;html=1;verticalAlign=top;align=center;shape=mxgraph.floorplan.table;direction=south;" vertex="1" parent="1">
          <mxGeometry x="660" y="385" width="50" height="90" as="geometry" />
        </mxCell>
      </root>
    </mxGraphModel>
  </diagram>
</mxfile>
